HIERARCHY
ROOT Hips
{
	OFFSET -22.846729 91.940529 -261.900696
	CHANNELS 6 Xposition Yposition Zposition Zrotation Yrotation Xrotation 
	JOINT LeftUpLeg
	{
		OFFSET 0.103462 1.857826 10.548503
		CHANNELS 3 Zrotation Yrotation Xrotation
		JOINT LeftLeg
		{
			OFFSET 43.500000 -0.000031 0.000000
			CHANNELS 3 Zrotation Yrotation Xrotation
			JOINT LeftFoot
			{
				OFFSET 42.372200 0.000008 -0.000003
				CHANNELS 3 Zrotation Yrotation Xrotation
				JOINT LeftToe
				{
					OFFSET 17.300003 0.000000 0.000002
					CHANNELS 3 Zrotation Yrotation Xrotation
					End Site
					{
						OFFSET 0.000000 0.000000 0.000000
					}
				}
			}
		}
	}
	JOINT RightUpLeg
	{
		OFFSET 0.103456 1.857828 -10.548503
		CHANNELS 3 Zrotation Yrotation Xrotation
		JOINT RightLeg
		{
			OFFSET 43.500042 -0.000019 0.000010
			CHANNELS 3 Zrotation Yrotation Xrotation
			JOINT RightFoot
			{
				OFFSET 42.372253 0.000000 0.000013
				CHANNELS 3 Zrotation Yrotation Xrotation
				JOINT RightToe
				{
					OFFSET 17.299976 -0.000010 0.000008
					CHANNELS 3 Zrotation Yrotation Xrotation
					End Site
					{
						OFFSET 0.000000 0.000000 0.000000
					}
				}
			}
		}
	}
	JOINT Spine
	{
		OFFSET 6.901965 -2.603735 -0.000001
		CHANNELS 3 Zrotation Yrotation Xrotation
		JOINT Spine1
		{
			OFFSET 12.588106 -0.000003 0.000000
			CHANNELS 3 Zrotation Yrotation Xrotation
			JOINT Spine2
			{
				OFFSET 12.343198 0.000019 -0.000002
				CHANNELS 3 Zrotation Yrotation Xrotation
				JOINT Neck
				{
					OFFSET 25.832905 -0.000013 0.000001
					CHANNELS 3 Zrotation Yrotation Xrotation
					JOINT Head
					{
						OFFSET 11.766598 0.000013 -0.000001
						CHANNELS 3 Zrotation Yrotation Xrotation
						End Site
						{
							OFFSET 0.000000 0.000000 0.000000
						}
					}
				}
				JOINT LeftShoulder
				{
					OFFSET 19.745911 -1.480387 6.000106
					CHANNELS 3 Zrotation Yrotation Xrotation
					JOINT LeftArm
					{
						OFFSET 11.284126 -0.000005 -0.000031
						CHANNELS 3 Zrotation Yrotation Xrotation
						JOINT LeftForeArm
						{
							OFFSET 33.000053 -0.000022 0.000026
							CHANNELS 3 Zrotation Yrotation Xrotation
							JOINT LeftHand
							{
								OFFSET 25.200005 0.000041 0.000016
								CHANNELS 3 Zrotation Yrotation Xrotation
								End Site
								{
									OFFSET 0.000000 0.000000 0.000000
								}
							}
						}
					}
				}
				JOINT RightShoulder
				{
					OFFSET 19.746105 -1.480383 -6.000075
					CHANNELS 3 Zrotation Yrotation Xrotation
					JOINT RightArm
					{
						OFFSET 11.284141 -0.000009 -0.000009
						CHANNELS 3 Zrotation Yrotation Xrotation
						JOINT RightForeArm
						{
							OFFSET 33.000092 0.000011 0.000021
							CHANNELS 3 Zrotation Yrotation Xrotation
							JOINT RightHand
							{
								OFFSET 25.199780 0.000133 0.000423
								CHANNELS 3 Zrotation Yrotation Xrotation
								End Site
								{
									OFFSET 0.000000 0.000000 0.000000
								}
							}
						}
					}
				}
			}
		}
	}
}
MOTION
Frames: 5
Frame Time: 0.033333
-22.846729 91.940529 261.900696 90.784286 -4.862016 -89.441846 -177.883247 -3.739298 -176.42018 -14.013602 -1.561438 -1.358139 83.699672 0.564126 -2.006035 21.454558 0.00311 2e-05 -175.136664 1.693301 -178.902981 -9.596121 2.67888 3.156344 82.475238 -2.295304 -0.207988 21.454551 -0.003093 2e-06 6.041827 0.042056 -0.25218 2.098675 0.077418 -0.499068 1.780585 0.074228 -0.499712 19.904853 -0.195685 -0.888529 -19.147544 1.568507 -1.55239 -177.662783 -89.484897 -4.022795 1.323319 1.878593 -11.056674 -13.858514 -17.774565 1.215405 12.80044 -7.878028 -1.903388 -73.666664 82.211094 108.834843 -9.128512 1.540929 5.814255 -6.81398 12.173409 -0.817281 11.535607 -5.773187 7.776336 
-22.846439 91.939407 261.902893 90.784293 -4.864953 -89.441846 -177.886854 -3.739307 -176.42018 -14.024877 -1.555486 -1.358141 83.703955 0.564129 -2.009668 21.45456 0.003108 1.6e-05 -175.142456 1.693292 -178.884102 -9.611633 2.675873 3.144102 82.481924 -2.286979 -0.20799 21.454553 -0.00309 0.0 6.04184 0.042054 -0.25218 2.095181 0.077419 -0.49907 1.777093 0.07423 -0.499704 19.934675 -0.178283 -0.881727 -19.145794 1.553866 -1.539769 -178.600622 -89.484897 -3.084091 1.357556 1.864078 -11.064991 -13.830132 -17.778334 1.215418 12.769504 -7.844558 -1.961204 -73.729085 82.209079 108.772566 -9.136995 1.569503 5.805211 -6.812394 12.2109 -0.817291 11.461927 -5.840409 7.772478 
-22.844971 91.936829 261.907898 90.784293 -4.87181 -89.448595 -177.894763 -3.739314 -176.42018 -14.051531 -1.542734 -1.358944 83.714398 0.56413 -2.018365 21.454558 0.003103 1.7e-05 -175.156458 1.693292 -178.836919 -9.648173 2.66763 3.111555 82.497074 -2.26502 -0.207993 21.454553 -0.003094 -2e-06 6.041833 0.042054 -0.252187 2.087399 0.077413 -0.499068 1.769326 0.074234 -0.499708 20.000544 -0.14492 -0.868365 -19.133856 1.528037 -1.515984 179.818035 -89.484139 -1.501426 1.439317 1.824818 -11.081393 -13.774591 -17.76481 1.215416 12.674931 -7.796609 -2.053059 -73.83651 82.198581 108.666049 -9.162715 1.63507 5.790853 -6.825697 12.294819 -0.817279 11.311401 -6.035286 7.723912 
-22.843361 91.934563 261.912292 90.784293 -4.879861 -89.457201 -177.898656 -3.739307 -176.409142 -14.072982 -1.542727 -1.369938 83.722826 0.570553 -2.024305 21.454558 0.003109 1.7e-05 -175.167141 1.69329 -178.799435 -9.680046 2.659965 3.083744 82.509942 -2.246239 -0.207985 21.454553 -0.00309 0.0 6.041835 0.042062 -0.252176 2.079067 0.082886 -0.499076 1.760982 0.079686 -0.499711 20.058766 -0.153837 -0.863549 -19.108494 1.532435 -1.51198 -178.483621 -89.479979 -3.200947 1.466977 1.789975 -11.094078 -13.73923 -17.742291 1.215419 12.622173 -7.832118 -2.056915 -73.790318 82.17667 108.714523 -9.184517 1.687874 5.779352 -6.876525 12.3492 -0.817295 11.28043 -6.117322 7.652096 
-22.842871 91.932587 261.915802 90.784306 -4.890008 -89.46414 -177.897154 -3.739314 -176.384171 -14.087731 -1.548049 -1.387903 83.728188 0.582296 -2.028295 21.454558 0.003108 1.7e-05 -175.171963 1.693286 -178.789832 -9.704702 2.65582 3.073457 82.520344 -2.23897 -0.207983 21.454551 -0.003091 1e-06 6.041818 0.042057 -0.252176 2.070629 0.089455 -0.499065 1.752532 0.086265 -0.499722 20.106335 -0.175923 -0.863499 -19.069506 1.546124 -1.51547 -174.311359 -89.472507 -7.37671 1.443475 1.763306 -11.11172 -13.742471 -17.741413 1.215418 12.657284 -7.852604 -1.9845 -73.753448 82.147423 108.754274 -9.205785 1.739724 5.765651 -6.943302 12.355739 -0.817289 11.29617 -5.933186 7.639263 
